<svg xmlns="http://www.w3.org/2000/svg" viewBox="0 0 168.01 84.23"><defs><style>.cls-1,.cls-2{fill:#fff;}.cls-2{opacity:0.8;}</style></defs><title>tbij-logo-homepage</title><g id="Layer_2" data-name="Layer 2"><g id="Layer_2_copy_3" data-name="Layer 2 copy 3"><path class="cls-1" d="M11.44,0V4.64H8.08V26.36H3.37V4.64H0V0Z"/><path class="cls-1" d="M17.18,26.36H12.47V0h4.71V10.06h2.48V0h4.71V26.36H19.66V15.23H17.18Z"/><path class="cls-1" d="M35.71,0V4.64H30.57v5.74h4v4.75h-4v6.48H36v4.75H25.86V0Z"/><path class="cls-1" d="M40.67,0h7.12c3.15,0,4.57,1.2,4.57,4.71V8.22a3.68,3.68,0,0,1-2.23,3.68c1.35.39,2.62,1.31,2.62,4.15v4.39c0,4.15-1.45,5.92-4.32,5.92H40.67Zm4.71,4v6.27h1.06c.81,0,1.28-.32,1.28-1.56V5.46c0-1-.32-1.42-1.2-1.42Zm0,10.52v7.62h1.31c.81,0,1.2-.21,1.2-1.74V16.16c0-1.1-.28-1.59-1.38-1.59Z"/><path class="cls-1" d="M53.95,0H58.8V20.41c0,1.1.39,1.63,1.17,1.63s1.13-.53,1.13-1.63V0H66V20.23c0,4.39-2.05,6.52-5.46,6.52H59.33c-3.44,0-5.38-2.13-5.38-6.52Z"/><path class="cls-1" d="M72.12,26.36H67.41V0h7.44c2.87,0,4.32,1.56,4.32,4.39V8.61a3.56,3.56,0,0,1-2.09,3.54,3.19,3.19,0,0,1,2,3.12v9a3.69,3.69,0,0,0,.39,1.95v.18H74.78a3.14,3.14,0,0,1-.43-2V16.65c0-1.24-.28-1.56-1.24-1.56h-1Zm0-15.62H73c1,0,1.31-.35,1.31-1.59V5.56c0-1.13-.21-1.49-1.17-1.49H72.12Z"/><path class="cls-1" d="M90.33,0V4.64H85.19v5.74h4v4.75h-4v6.48h5.38v4.75H80.48V0Z"/><path class="cls-1" d="M98.62,21.93H95.78l-.43,4.43H91.18L94.51,0h5.6l3.58,26.36H99.12ZM96.25,17.4h1.91l-1-9Z"/><path class="cls-1" d="M104.15,0H109V20.41c0,1.1.39,1.63,1.17,1.63s1.13-.53,1.13-1.63V0h4.85V20.23c0,4.39-2.05,6.52-5.46,6.52h-1.17c-3.44,0-5.38-2.13-5.38-6.52Z"/><path class="cls-2" d="M12.36,49.69c0,3.86-2.05,6.41-5.6,6.41H5.7C2,56.1,0,53.83,0,49.69V35.76C0,31.69,1.59,29,5.67,29H6.73c4.15,0,5.63,2.66,5.63,6.7ZM7.44,35.37c0-1.17-.43-1.74-1.24-1.74s-1.28.57-1.28,1.74V49.83c0,.81.32,1.56,1.31,1.56s1.2-.74,1.2-1.56Z"/><path class="cls-2" d="M13.74,29.35h10.1V34H18.46V39.7h4v4.75h-4V55.71H13.74Z"/><path class="cls-2" d="M33.3,55.71H28.59V29.35H33.3Z"/><path class="cls-2" d="M39.21,29.35l3.22,13.46V29.35h4.18V55.71h-4L39,41.26V55.71H34.79V29.35Z"/><path class="cls-2" d="M47.33,29.35h4.89L54,47l1.74-17.68h4.5L56.82,55.71h-6Z"/><path class="cls-2" d="M70.74,29.35V34H65.6v5.74h4v4.75h-4V51H71v4.75H60.89V29.35Z"/><path class="cls-2" d="M78.21,29c3.68,0,5.07,1.63,5.07,5.17v3.54H78.75V34.45c0-.85-.18-1.38-1-1.38s-1,.53-1,1.42v.6a4.5,4.5,0,0,0,1.45,3.4l2.69,3c2.37,2.69,2.87,4.46,2.87,6.77v1.24c0,4-1.81,6.52-5.74,6.52H77c-3.58,0-5.38-1.91-5.38-5.46V45.83H76.3V50c0,1.06.39,1.59,1.2,1.59s1.17-.64,1.17-1.91v-.5a4.71,4.71,0,0,0-1.52-4.11l-2.73-3a8.87,8.87,0,0,1-2.51-6.7V34.28c0-3.4,2.05-5.24,5.35-5.24Z"/><path class="cls-2" d="M95.57,29.35V34H92.21V55.71H87.5V34H84.13V29.35Z"/><path class="cls-2" d="M101.31,55.71H96.6V29.35h4.71Z"/><path class="cls-2" d="M107,56.06c-2.73,0-4.29-2.34-4.29-5.17V35.2c0-3.22,1.38-6.16,5.49-6.16h1c4.68,0,5.46,3,5.46,6.13v2.91H110V35.13c0-1.1-.25-1.67-1.2-1.67-.78,0-1.17.57-1.17,1.67V49.79q0,1.7,1.28,1.7c.92,0,1.38-.53,1.38-1.63V44.2h-1.74V39.77h6.27V55.71h-2.87c-.14-.6-.43-1.7-.71-2.52-.5.89-1.52,2.87-3.9,2.87Z"/><path class="cls-2" d="M122.81,51.28H120l-.43,4.43h-4.18l3.33-26.36h5.6l3.58,26.36h-4.57Zm-2.37-4.53h1.91l-1-9Z"/><path class="cls-2" d="M137.9,29.35V34h-3.37V55.71h-4.71V34h-3.37V29.35Z"/><path class="cls-2" d="M143.64,55.71h-4.71V29.35h4.71Z"/><path class="cls-2" d="M144.35,29.35h4.89L151,47l1.74-17.68h4.5l-3.37,26.36h-6Z"/><path class="cls-2" d="M167.77,29.35V34h-5.14v5.74h4v4.75h-4V51H168v4.75h-10.1V29.35Z"/><path class="cls-2" d="M4.53,72.25v6.09c0,.78.32,1.17.92,1.17H5.6c.67,0,.89-.5.89-1.17V57.48h4.89v21c0,3.68-1.88,5.63-5,5.63H4.82C1.7,84.12,0,82.67,0,79V72.25Z"/><path class="cls-2" d="M25.08,77.81c0,3.86-2.05,6.41-5.6,6.41H18.42c-3.72,0-5.7-2.27-5.7-6.41V63.89c0-4.07,1.59-6.73,5.67-6.73h1.06c4.14,0,5.63,2.66,5.63,6.7ZM20.16,63.5c0-1.17-.43-1.74-1.24-1.74s-1.28.57-1.28,1.74V78c0,.81.32,1.56,1.31,1.56s1.2-.74,1.2-1.56Z"/><path class="cls-2" d="M26.43,57.48h4.85V77.88c0,1.1.39,1.63,1.17,1.63s1.13-.53,1.13-1.63V57.48h4.85V77.71c0,4.39-2.05,6.52-5.46,6.52H31.81c-3.44,0-5.38-2.13-5.38-6.52Z"/><path class="cls-2" d="M44.6,83.84H39.89V57.48h7.44c2.87,0,4.32,1.56,4.32,4.39v4.22a3.56,3.56,0,0,1-2.09,3.54,3.19,3.19,0,0,1,2,3.12v9A3.69,3.69,0,0,0,52,83.66v.18H47.26a3.14,3.14,0,0,1-.43-2V74.13c0-1.24-.28-1.56-1.24-1.56h-1Zm0-15.62h.92c1,0,1.31-.35,1.31-1.59V63c0-1.13-.21-1.49-1.17-1.49H44.6Z"/><path class="cls-2" d="M57.39,57.48l3.22,13.46V57.48h4.18V83.84h-4L57.14,69.38V83.84H53V57.48Z"/><path class="cls-2" d="M72.9,79.41H70.07l-.43,4.43H65.46l3.33-26.36h5.6L78,83.84H73.4Zm-2.37-4.53h1.91l-1-9Z"/><path class="cls-2" d="M83.35,57.48V79.09h5v4.75H78.64V57.48Z"/><path class="cls-2" d="M94.12,83.84H89.41V57.48h4.71Z"/><path class="cls-2" d="M101.77,57.16c3.68,0,5.07,1.63,5.07,5.17v3.54H102.3V62.58c0-.85-.18-1.38-1-1.38s-1,.53-1,1.42v.6a4.5,4.5,0,0,0,1.45,3.4l2.69,3c2.37,2.69,2.87,4.46,2.87,6.77v1.24c0,4-1.81,6.52-5.74,6.52h-.92c-3.58,0-5.38-1.91-5.38-5.46V74h4.64v4.22c0,1.06.39,1.59,1.2,1.59s1.17-.64,1.17-1.91v-.5a4.71,4.71,0,0,0-1.52-4.11l-2.73-3a8.87,8.87,0,0,1-2.51-6.7V62.4c0-3.4,2.05-5.24,5.35-5.24Z"/><path class="cls-2" d="M108.32,57.48h5.81l1.81,13.32,1.81-13.32h5.42V83.84h-4.25V68.25l-2.34,15.59h-1.77l-2.37-15.59V83.84h-4.11Z"/></g></g></svg>