<?xml version="1.0" standalone="no"?>
<!DOCTYPE svg PUBLIC "-//W3C//DTD SVG 20010904//EN"
 "http://www.w3.org/TR/2001/REC-SVG-20010904/DTD/svg10.dtd">
<svg version="1.0" xmlns="http://www.w3.org/2000/svg"
 width="512.000000pt" height="512.000000pt" viewBox="0 0 512.000000 512.000000"
 preserveAspectRatio="xMidYMid meet">
<metadata>
Created by potrace 1.11, written by Peter Selinger 2001-2013
</metadata>
<g transform="translate(0.000000,512.000000) scale(0.100000,-0.100000)"
fill="#000000" stroke="none">
<path d="M2419 4216 c-2 -2 -33 -7 -69 -10 -77 -8 -205 -37 -315 -72 -449
-143 -846 -520 -1017 -964 -92 -239 -119 -398 -113 -650 5 -177 7 -195 42
-345 144 -614 634 -1097 1255 -1235 121 -27 201 -35 363 -35 188 0 284 12 440
56 290 82 548 236 749 448 28 29 56 59 63 66 64 66 200 278 251 391 30 66 80
200 87 234 2 8 13 53 24 100 28 115 36 199 36 365 0 201 -19 329 -77 505 -52
162 -98 255 -203 415 -158 240 -384 436 -650 565 -161 78 -284 118 -466 151
-60 10 -392 23 -400 15z"/>
</g>
</svg>
