<?xml version="1.0" encoding="UTF-8"?>
<svg width="24px" height="30px" viewBox="0 0 24 30" version="1.1" xmlns="http://www.w3.org/2000/svg" xmlns:xlink="http://www.w3.org/1999/xlink">
    <title>open lab copy 195</title>
    <g id="assets" stroke="none" stroke-width="1" fill="none" fill-rule="evenodd">
        <g id="CIJ_Logo_FullSize_White" transform="translate(12.500000, 15.500000) rotate(-90.000000) translate(-12.500000, -15.500000) translate(1.000000, 4.000000)" fill="#E64833">
            <path d="M11.2021811,0.0359116203 C14.5663517,0.0359116203 17.0128309,2.58249439 17.0128309,5.90581559 C17.0128309,8.25548298 16.0140389,9.86058277 14.2139689,10.9057606 L12.8752137,8.64916412 C13.9256286,8.092534 14.5361261,7.16736088 14.5361261,5.86990397 C14.5361261,4.16081011 13.1150734,2.78838768 11.1967943,2.78838768 C9.37487811,2.78838768 7.92719092,4.13387639 7.92719092,5.85194816 C7.92719092,7.18875822 8.60726723,8.1085446 9.6057599,8.66502508 L8.2438117,10.9163844 C6.49012758,9.85534566 5.45048617,8.25009624 5.45048617,5.80197115 C5.45048617,2.58249439 7.96310254,0.0359116203 11.2021811,0.0359116203" id="Fill-1"></path>
            <path d="M5.71174321,15.7265963 L16.7623473,15.7265963 L16.7623473,13.0100319 L5.71174321,13.0100319 L5.71174321,15.7265963 Z M20.8583669,12.6485216 C21.8338162,12.6485216 22.5638696,13.4020671 22.5638696,14.3773668 C22.5638696,15.3525169 21.8338162,16.0827199 20.8583669,16.0827199 C19.8832167,16.0827199 19.1299705,15.3525169 19.1299705,14.3773668 C19.1299705,13.4020671 19.8832167,12.6485216 20.8583669,12.6485216 L20.8583669,12.6485216 Z" id="Fill-2"></path>
            <path d="M20.8583669,18.6147884 C21.8338162,18.6147884 22.5638696,19.3680346 22.5638696,20.3433344 C22.5638696,21.3187838 21.8338162,22.0488371 20.8583669,22.0488371 C19.8832167,22.0488371 19.1299705,21.3187838 19.1299705,20.3433344 C19.1299705,19.3680346 19.8832167,18.6147884 20.8583669,18.6147884 Z M2.64429231,16.8287838 C2.64429231,18.2194613 3.21708265,18.9653756 5.31087975,18.9653756 L16.7623473,18.9653756 L16.7623473,21.68194 L4.96897119,21.68194 C1.37736027,21.68194 -0.0255870295,19.9927472 0.0638927578,16.8287838 L2.64429231,16.8287838 L2.64429231,16.8287838 Z" id="Fill-3"></path>
        </g>
    </g>
</svg>